<svg xmlns="http://www.w3.org/2000/svg" width="110" height="90"><path fill-rule="evenodd" d="M86 2H24c-4.233 0-7.288.002-9.69.198-2.377.194-3.937.57-5.212 1.219a13 13 0 0 0-5.681 5.681c-.65 1.275-1.025 2.835-1.22 5.213C2.003 16.71 2 19.767 2 24v42c0 4.233.002 7.288.198 9.69.194 2.377.57 3.936 1.219 5.212a13 13 0 0 0 5.681 5.681c1.275.65 2.835 1.025 5.213 1.22 2.4.195 5.456.197 9.689.197h62c4.233 0 7.288-.002 9.69-.198 2.377-.194 3.936-.57 5.212-1.219a12.999 12.999 0 0 0 5.681-5.681c.65-1.276 1.025-2.835 1.219-5.213.196-2.4.198-5.456.198-9.689V24c0-4.233-.002-7.288-.198-9.69-.194-2.377-.569-3.937-1.219-5.212a12.998 12.998 0 0 0-5.681-5.681c-1.276-.65-2.835-1.025-5.213-1.22C93.29 2.003 90.233 2 86 2ZM1.635 8.19C0 11.4 0 15.6 0 24v42c0 8.4 0 12.601 1.635 15.81a15 15 0 0 0 6.555 6.555C11.4 90 15.6 90 24 90h62c8.4 0 12.601 0 15.81-1.635a15.001 15.001 0 0 0 6.555-6.555C110 78.6 110 74.4 110 66V24c0-8.4 0-12.601-1.635-15.81a15.001 15.001 0 0 0-6.555-6.555C98.601 0 94.4 0 86 0H24C15.6 0 11.399 0 8.19 1.635A15 15 0 0 0 1.635 8.19Z"/></svg>